<svg width="100%" height="100%" viewBox="0 0 96 96" fill="none" xmlns="http://www.w3.org/2000/svg"><g clip-path="url(#clip0_6153_71)"><path d="M85.9734 89.3438C91.2234 93.2812 99.0984 90.6562 91.8796 83.4375C70.2234 62.4375 74.8171 4.6875 47.9109 4.6875C21.0046 4.6875 25.5984 62.4375 3.94213 83.4375C-3.93287 91.3125 4.59838 93.2812 9.84838 89.3438C30.1921 75.5625 28.8796 51.2812 47.9109 51.2812C66.9421 51.2812 65.6296 75.5625 85.9734 89.3438Z" fill="#3186FF"></path><mask id="mask0_6153_71" maskUnits="userSpaceOnUse" x="0" y="4" width="95" height="88" style="mask-type: alpha;"><path d="M85.9734 89.3438C91.2234 93.2812 99.0984 90.6562 91.8796 83.4375C70.2234 62.4375 74.8171 4.6875 47.9109 4.6875C21.0046 4.6875 25.5984 62.4375 3.94213 83.4375C-3.93287 91.3125 4.59838 93.2812 9.84838 89.3438C30.1921 75.5625 28.8796 51.2812 47.9109 51.2812C66.9421 51.2812 65.6296 75.5625 85.9734 89.3438Z" fill="black"></path></mask><g mask="url(#mask0_6153_71)"><g filter="url(#filter0_f_6153_71)"><ellipse cx="25.6357" cy="30.161" rx="25.6357" ry="30.161" transform="matrix(-0.112784 0.99362 -0.99362 -0.112781 59.5896 -33.5392)" fill="#FFE432"></ellipse></g><g filter="url(#filter1_f_6153_71)"><ellipse cx="93.6143" cy="23.4505" rx="33.1883" ry="33.9179" transform="rotate(76.9243 93.6143 23.4505)" fill="#FC413D"></ellipse></g><g filter="url(#filter2_f_6153_71)"><ellipse cx="-4.78051" cy="30.8098" rx="34.686" ry="44.9344" transform="rotate(74.1257 -4.78051 30.8098)" fill="#00B95C"></ellipse></g><g filter="url(#filter3_f_6153_71)"><ellipse cx="-4.78051" cy="30.8098" rx="34.686" ry="44.9344" transform="rotate(74.1257 -4.78051 30.8098)" fill="#00B95C"></ellipse></g><g filter="url(#filter4_f_6153_71)"><ellipse cx="-2.31406" cy="32.1899" rx="33.9975" ry="37.4282" transform="rotate(45.6065 -2.31406 32.1899)" fill="#00B95C"></ellipse></g><g filter="url(#filter5_f_6153_71)"><ellipse cx="70.2862" cy="101.861" rx="32.6449" ry="31.4359" transform="rotate(76.9243 70.2862 101.861)" fill="#3186FF"></ellipse></g><g filter="url(#filter6_f_6153_71)"><ellipse cx="37.7619" cy="39.8298" rx="37.7619" ry="39.8298" transform="matrix(-0.409539 0.912293 -0.912294 -0.409537 98.9683 -33.1266)" fill="#FBBC04"></ellipse></g><g filter="url(#filter7_f_6153_71)"><path d="M-12.0493 152.344C-32.7264 144.227 2.61016 77.4428 11.3972 55.0598C20.1841 32.6769 44.0695 21.1122 64.7466 29.2295C85.4236 37.3467 109.932 82.0552 101.145 104.438C92.3577 126.8 8.6 160.461 -12.0493 152.344Z" fill="#3186FF"></path></g><g filter="url(#filter8_f_6153_71)"><path d="M113.238 69.2209C107.702 75.6818 93.256 72.3872 80.9716 61.8621C68.6872 51.337 63.2163 37.567 68.752 31.1061C74.2876 24.6451 88.7336 27.9398 101.018 38.4649C113.302 48.99 118.773 62.7599 113.238 69.2209Z" fill="#749BFF"></path></g><g filter="url(#filter9_f_6153_71)"><ellipse cx="89.2491" cy="10.7078" rx="49.7713" ry="30.9393" transform="rotate(34.0763 89.2491 10.7078)" fill="#FC413D"></ellipse></g><g filter="url(#filter10_f_6153_71)"><ellipse cx="11.4944" cy="17.2241" rx="26.6705" ry="15.5102" transform="rotate(112.516 11.4944 17.2241)" fill="#FFEE48"></ellipse></g></g></g><defs><filter id="filter0_f_6153_71" x="-12.1334" y="-45.9232" width="77.7263" height="68.9091" filterUnits="userSpaceOnUse" color-interpolation-filters="sRGB"><feFlood flood-opacity="0" result="BackgroundImageFix"></feFlood><feBlend mode="normal" in="SourceGraphic" in2="BackgroundImageFix" result="shape"></feBlend><feGaussianBlur stdDeviation="4.37664" result="effect1_foregroundBlur_6153_71"></feGaussianBlur></filter><filter id="filter1_f_6153_71" x="17.4083" y="-52.1006" width="152.412" height="151.102" filterUnits="userSpaceOnUse" color-interpolation-filters="sRGB"><feFlood flood-opacity="0" result="BackgroundImageFix"></feFlood><feBlend mode="normal" in="SourceGraphic" in2="BackgroundImageFix" result="shape"></feBlend><feGaussianBlur stdDeviation="21.1588" result="effect1_foregroundBlur_6153_71"></feGaussianBlur></filter><filter id="filter2_f_6153_71" x="-85.0138" y="-40.729" width="160.467" height="143.078" filterUnits="userSpaceOnUse" color-interpolation-filters="sRGB"><feFlood flood-opacity="0" result="BackgroundImageFix"></feFlood><feBlend mode="normal" in="SourceGraphic" in2="BackgroundImageFix" result="shape"></feBlend><feGaussianBlur stdDeviation="17.987" result="effect1_foregroundBlur_6153_71"></feGaussianBlur></filter><filter id="filter3_f_6153_71" x="-85.0138" y="-40.729" width="160.467" height="143.078" filterUnits="userSpaceOnUse" color-interpolation-filters="sRGB"><feFlood flood-opacity="0" result="BackgroundImageFix"></feFlood><feBlend mode="normal" in="SourceGraphic" in2="BackgroundImageFix" result="shape"></feBlend><feGaussianBlur stdDeviation="17.987" result="effect1_foregroundBlur_6153_71"></feGaussianBlur></filter><filter id="filter4_f_6153_71" x="-74.0787" y="-39.502" width="143.529" height="143.384" filterUnits="userSpaceOnUse" color-interpolation-filters="sRGB"><feFlood flood-opacity="0" result="BackgroundImageFix"></feFlood><feBlend mode="normal" in="SourceGraphic" in2="BackgroundImageFix" result="shape"></feBlend><feGaussianBlur stdDeviation="17.987" result="effect1_foregroundBlur_6153_71"></feGaussianBlur></filter><filter id="filter5_f_6153_71" x="4.5942" y="35.0845" width="131.384" height="133.554" filterUnits="userSpaceOnUse" color-interpolation-filters="sRGB"><feFlood flood-opacity="0" result="BackgroundImageFix"></feFlood><feBlend mode="normal" in="SourceGraphic" in2="BackgroundImageFix" result="shape"></feBlend><feGaussianBlur stdDeviation="17.0929" result="effect1_foregroundBlur_6153_71"></feGaussianBlur></filter><filter id="filter6_f_6153_71" x="-23.3161" y="-84.096" width="140.966" height="138.215" filterUnits="userSpaceOnUse" color-interpolation-filters="sRGB"><feFlood flood-opacity="0" result="BackgroundImageFix"></feFlood><feBlend mode="normal" in="SourceGraphic" in2="BackgroundImageFix" result="shape"></feBlend><feGaussianBlur stdDeviation="15.4911" result="effect1_foregroundBlur_6153_71"></feGaussianBlur></filter><filter id="filter7_f_6153_71" x="-46.1105" y="-1.03333" width="176.759" height="182.283" filterUnits="userSpaceOnUse" color-interpolation-filters="sRGB"><feFlood flood-opacity="0" result="BackgroundImageFix"></feFlood><feBlend mode="normal" in="SourceGraphic" in2="BackgroundImageFix" result="shape"></feBlend><feGaussianBlur stdDeviation="13.8342" result="effect1_foregroundBlur_6153_71"></feGaussianBlur></filter><filter id="filter8_f_6153_71" x="41.8338" y="3.04072" width="98.3219" height="94.2455" filterUnits="userSpaceOnUse" color-interpolation-filters="sRGB"><feFlood flood-opacity="0" result="BackgroundImageFix"></feFlood><feBlend mode="normal" in="SourceGraphic" in2="BackgroundImageFix" result="shape"></feBlend><feGaussianBlur stdDeviation="12.379" result="effect1_foregroundBlur_6153_71"></feGaussianBlur></filter><filter id="filter9_f_6153_71" x="23.6047" y="-48.077" width="131.289" height="117.57" filterUnits="userSpaceOnUse" color-interpolation-filters="sRGB"><feFlood flood-opacity="0" result="BackgroundImageFix"></feFlood><feBlend mode="normal" in="SourceGraphic" in2="BackgroundImageFix" result="shape"></feBlend><feGaussianBlur stdDeviation="10.4556" result="effect1_foregroundBlur_6153_71"></feGaussianBlur></filter><filter id="filter10_f_6153_71" x="-31.9837" y="-34.0061" width="86.9561" height="102.461" filterUnits="userSpaceOnUse" color-interpolation-filters="sRGB"><feFlood flood-opacity="0" result="BackgroundImageFix"></feFlood><feBlend mode="normal" in="SourceGraphic" in2="BackgroundImageFix" result="shape"></feBlend><feGaussianBlur stdDeviation="12.9406" result="effect1_foregroundBlur_6153_71"></feGaussianBlur></filter><clipPath id="clip0_6153_71"><rect width="96" height="96" fill="white"></rect></clipPath></defs></svg>